<svg width="65" height="32" viewBox="0 0 65 32" fill="none" xmlns="http://www.w3.org/2000/svg">
<path d="M40.5 16.0001C40.5 16.3798 40.2178 16.6936 39.8518 16.7433L39.75 16.7501L26.566 16.7495L31.329 21.4931C31.6225 21.7853 31.6235 22.2602 31.3313 22.5537C31.0656 22.8205 30.649 22.8457 30.3549 22.6284L30.2706 22.556L24.2206 16.532C24.1819 16.4935 24.1483 16.4518 24.1198 16.4077C24.1117 16.3945 24.1035 16.3809 24.0958 16.3671C24.0886 16.3552 24.0822 16.3429 24.0761 16.3305C24.0676 16.3124 24.0593 16.2937 24.0518 16.2746C24.0457 16.2599 24.0406 16.2455 24.036 16.2311C24.0304 16.2132 24.0251 16.1942 24.0204 16.1748C24.017 16.1613 24.0143 16.1483 24.0119 16.1352C24.0086 16.1158 24.0057 16.0957 24.0037 16.0753C24.002 16.0598 24.0009 16.0444 24.0003 16.029C24.0002 16.0197 24 16.0099 24 16.0001L24.0004 15.9711C24.0009 15.9564 24.002 15.9416 24.0034 15.927L24 16.0001C24 15.9528 24.0044 15.9065 24.0128 15.8616C24.0147 15.8509 24.017 15.8399 24.0196 15.8289C24.0249 15.8063 24.0311 15.7846 24.0382 15.7633C24.0416 15.7527 24.0457 15.7414 24.05 15.7301C24.0588 15.7076 24.0683 15.6861 24.0788 15.6651C24.0837 15.6552 24.0891 15.6449 24.0948 15.6347C24.1042 15.6181 24.1139 15.6022 24.1241 15.5868C24.1313 15.5759 24.1393 15.5645 24.1476 15.5533L24.1541 15.5447C24.1743 15.5183 24.1962 15.4933 24.2197 15.4698L24.2206 15.4691L30.2706 9.4441C30.5641 9.15181 31.0389 9.15279 31.3312 9.44629C31.5969 9.71311 31.6203 10.1298 31.4018 10.423L31.329 10.507L26.568 15.2495L39.75 15.2501C40.1642 15.2501 40.5 15.5859 40.5 16.0001Z" fill="#171725"/>
</svg>
