<svg width="121" height="120" viewBox="0 0 121 120" fill="none" xmlns="http://www.w3.org/2000/svg">
<g clip-path="url(#clip0_643_2517)">
<path fill-rule="evenodd" clip-rule="evenodd" d="M60.4998 119.999C93.5523 119.999 120.499 93.0456 120.499 59.9999C120.499 26.9542 93.5523 0.000610352 60.4998 0.000610352C27.4541 0.000610352 0.500488 26.9542 0.500488 59.9999C0.500488 93.0456 27.4541 119.999 60.4998 119.999Z" fill="#BBACE8"/>
<path fill-rule="evenodd" clip-rule="evenodd" d="M83.5867 42.6003L80.9558 93.4777C80.8628 95.1917 79.4544 96.5337 77.7337 96.5337H39.2666C37.5458 96.5337 36.1307 95.1917 36.0444 93.4777L33.4136 42.6003H83.5867Z" fill="#EFEAFF"/>
<path fill-rule="evenodd" clip-rule="evenodd" d="M43.1536 51.7951L44.1103 87.5117C44.1368 88.3754 44.861 89.0598 45.7247 89.033C46.5883 89.0131 47.2727 88.2889 47.2528 87.4252L46.2895 51.7154C46.2696 50.8517 45.5388 50.1608 44.6751 50.1873C43.818 50.2072 43.1271 50.9314 43.1536 51.7951Z" fill="#4C2F8D"/>
<path fill-rule="evenodd" clip-rule="evenodd" d="M73.8472 51.7951L72.8905 87.5117C72.864 88.3754 72.1398 89.0598 71.2761 89.033C70.4124 89.0131 69.7281 88.2889 69.748 87.4252L70.7113 51.7154C70.7312 50.8517 71.4554 50.1608 72.3191 50.1873C73.1827 50.2072 73.8737 50.9314 73.8472 51.7951Z" fill="#4C2F8D"/>
<path fill-rule="evenodd" clip-rule="evenodd" d="M60.0681 51.7088V87.432C60.0681 88.2957 59.3638 89 58.5001 89C57.6364 89 56.9321 88.2957 56.9321 87.432V51.7088C56.9321 50.8451 57.6364 50.1343 58.5001 50.1343C59.364 50.1343 60.0681 50.8451 60.0681 51.7088Z" fill="#4C2F8D"/>
<path fill-rule="evenodd" clip-rule="evenodd" d="M32.0186 35.8236L45.2196 32.2892C44.6348 28.489 47.0135 24.7419 50.8068 23.7254C54.6004 22.7089 58.5269 24.7618 59.9219 28.3494L73.1296 24.8082C75.1361 24.2766 77.2155 25.4726 77.7536 27.4789L78.7303 31.1262L30.3243 44.0951L29.3477 40.4478C28.8096 38.4413 30.0122 36.3617 32.0186 35.8236Z" fill="#4C2F8D"/>
<path fill-rule="evenodd" clip-rule="evenodd" d="M83.5869 42.6003L80.956 93.4777C80.8629 95.1917 79.4546 96.5337 77.7338 96.5337H73.7476C75.4683 96.5337 76.8767 95.1917 76.9697 93.4777L79.6006 42.6003H83.5869Z" fill="#BBACE8"/>
<path fill-rule="evenodd" clip-rule="evenodd" d="M83.0949 52.3997C87.8783 52.3997 91.7848 48.4931 91.7848 43.7098C91.7848 38.9196 87.8783 35.0133 83.0949 35.0133C78.3048 35.0133 74.3984 38.9199 74.3984 43.7098C74.3984 48.4931 78.305 52.3997 83.0949 52.3997Z" fill="#4C2F8D"/>
<path fill-rule="evenodd" clip-rule="evenodd" d="M29.2349 39.1453L37.194 37.0193L56.9324 31.7243L70.1401 28.1899C72.1466 27.6518 74.226 28.8544 74.7641 30.8606L75.0962 32.1031L78.7302 31.1264L77.7535 27.4791C77.2154 25.4726 75.1358 24.2768 73.1296 24.8084L59.9218 28.3495C58.5266 24.762 54.6001 22.7091 50.8067 23.7255C47.0134 24.742 44.6347 28.489 45.2195 32.2894L32.0185 35.8238C30.4506 36.2487 29.3675 37.6106 29.2349 39.1453Z" fill="#352361"/>
</g>
<defs>
<clipPath id="clip0_643_2517">
<rect x="0.5" width="120" height="120" fill="white"/>
</clipPath>
</defs>
</svg>
