<svg width="121" height="120" viewBox="0 0 121 120" fill="none" xmlns="http://www.w3.org/2000/svg">
<rect x="0.5" width="120" height="120" rx="60" fill="#BBACE8"/>
<path d="M87.7076 31H28.2925C26.1987 31 24.5 32.6929 24.5 34.7795V87.2205C24.5 89.3071 26.1987 91 28.2925 91H87.7076C89.8013 91 91.5 89.3071 91.5 87.2205V34.7795C91.5 32.6929 89.8013 31 87.7076 31Z" fill="#EFEAFF"/>
<path d="M91.5 34.5556V43H24.5V34.5556C24.5 32.5926 26.1987 31 28.2925 31H87.7076C89.8013 31 91.5 32.5926 91.5 34.5556Z" fill="#4C2F8D"/>
<path d="M51.5 31.5H49.1471C49.1471 28.2833 46.8382 25.6667 44 25.6667C41.1618 25.6667 38.8529 28.2833 38.8529 31.5C38.8529 34.7167 41.1618 37.3333 44 37.3333C44.65 37.3333 45.1765 37.93 45.1765 38.6667C45.1765 39.4033 44.65 40 44 40C39.8647 40 36.5 36.1867 36.5 31.5C36.5 26.8133 39.8647 23 44 23C48.1353 23 51.5 26.8133 51.5 31.5Z" fill="#EFEAFF"/>
<path d="M78.5 31.5H76.1471C76.1471 28.2833 73.8382 25.6667 71 25.6667C68.1618 25.6667 65.8529 28.2833 65.8529 31.5C65.8529 34.7167 68.1618 37.3333 71 37.3333C71.65 37.3333 72.1765 37.93 72.1765 38.6667C72.1765 39.4033 71.65 40 71 40C66.8647 40 63.5 36.1867 63.5 31.5C63.5 26.8133 66.8647 23 71 23C75.1353 23 78.5 26.8133 78.5 31.5Z" fill="#EFEAFF"/>
<path d="M80.5 71.202V80.4141C80.5 81.8428 79.393 83 78.0263 83H76.3257C74.959 83 73.852 81.8428 73.852 80.4141V75.8889H40.148V80.4141C40.148 81.8428 39.0411 83 37.6743 83H35.9737C34.607 83 33.5 81.8428 33.5 80.4141V53.5859C33.5 52.1572 34.607 51 35.9737 51H37.6743C39.0411 51 40.148 52.1572 40.148 53.5859V68.6162H78.0263C79.393 68.6162 80.5 69.7733 80.5 71.202Z" fill="#4C2F8D"/>
<path d="M77.5 66.5122V69H40.5V66.5122C40.5 64.5732 42.1854 63 44.2627 63H73.7373C75.8146 63 77.5 64.5732 77.5 66.5122Z" fill="#BBACE8"/>
<path d="M81.5 97C89.7843 97 96.5 90.0604 96.5 81.5C96.5 72.9396 89.7843 66 81.5 66C73.2157 66 66.5 72.9396 66.5 81.5C66.5 90.0604 73.2157 97 81.5 97Z" fill="#9482BB"/>
<path d="M83.3101 82.5L87.125 79.0029C87.625 78.5447 87.625 77.8018 87.125 77.3436C86.6252 76.8855 85.8147 76.8855 85.3149 77.3436L81.5 80.8407L77.6851 77.3436C77.1853 76.8855 76.3748 76.8855 75.875 77.3436C75.375 77.8018 75.375 78.5447 75.875 79.0029L79.6899 82.5L75.875 85.997C75.375 86.4552 75.375 87.1981 75.875 87.6563C76.375 88.1146 77.1853 88.1145 77.6851 87.6563L81.5 84.1592L85.3149 87.6563C85.8149 88.1146 86.6252 88.1145 87.125 87.6563C87.625 87.1981 87.625 86.4552 87.125 85.997L83.3101 82.5Z" fill="#F1EFFB"/>
</svg>
