<svg width="72" height="44" viewBox="0 0 72 44" fill="none" xmlns="http://www.w3.org/2000/svg">
<path d="M39 23H33" stroke="#4C2F8D" stroke-width="1.5" stroke-linecap="round"/>
<path d="M36 20L36 26" stroke="#4C2F8D" stroke-width="1.5" stroke-linecap="round"/>
<path d="M33.7778 31L38.2222 31C41.3433 31 42.9038 31 44.0248 30.2646C44.51 29.9462 44.9267 29.5371 45.251 29.0607C46 27.9601 46 26.4279 46 23.3636C46 20.2994 46 18.7672 45.251 17.6666C44.9267 17.1901 44.51 16.781 44.0248 16.4627C43.3044 15.9901 42.4027 15.8212 41.022 15.7609C40.3631 15.7609 39.7959 15.2707 39.6667 14.6364C39.4728 13.6849 38.6219 13 37.6337 13H34.3663C33.3781 13 32.5272 13.6849 32.3333 14.6364C32.2041 15.2707 31.6369 15.7609 30.978 15.7609C29.5973 15.8212 28.6956 15.9901 27.9752 16.4627C27.49 16.781 27.0733 17.1901 26.749 17.6666C26 18.7672 26 20.2994 26 23.3636C26 26.4279 26 27.9601 26.749 29.0607C27.0733 29.5371 27.49 29.9462 27.9752 30.2646C29.0962 31 30.6568 31 33.7778 31Z" stroke="#4C2F8D" stroke-width="1.5"/>
<path d="M43 20H42" stroke="#4C2F8D" stroke-width="1.5" stroke-linecap="round"/>
<rect x="0.5" y="0.5" width="71" height="43" rx="21.5" stroke="#4C2F8D"/>
</svg>
