<svg width="260" height="165" viewBox="0 0 260 165" fill="none" xmlns="http://www.w3.org/2000/svg">
<rect x="-1" y="20.9958" width="242" height="145" rx="12" transform="rotate(-5.2149 -1 20.9958)" fill="#352361"/>
<g clip-path="url(#clip0_643_2357)">
<rect x="18" y="7.1687" width="242" height="145" rx="12" fill="#BBACE8"/>
<ellipse cx="261" cy="3.6687" rx="92" ry="91.5" fill="#4C2F8D"/>
<path fill-rule="evenodd" clip-rule="evenodd" d="M244.129 17.1687C242.926 17.1687 241.809 17.5377 240.879 18.1704L240.905 18.193C240.944 18.2259 240.981 18.2575 241.01 18.2917C242.4 19.5191 243.196 21.2984 243.196 23.169C243.196 25.038 242.403 26.8156 241.02 28.0487C240.974 28.0884 240.925 28.128 240.877 28.1668C241.809 28.8004 242.926 29.1685 244.128 29.1685C247.372 29.1693 250 26.4831 250 23.169C250 19.8565 247.372 17.1687 244.129 17.1687ZM239.98 28.0489C240.026 28.0885 240.075 28.1282 240.123 28.167C239.192 28.8005 238.073 29.1687 236.872 29.1687C233.628 29.1695 231 26.4833 231 23.1692C231 19.8559 233.628 17.1689 236.871 17.1689C238.073 17.1689 239.192 17.5378 240.121 18.1705L240.095 18.1932L240.095 18.1932C240.056 18.2261 240.019 18.2576 239.99 18.2919C238.6 19.5193 237.804 21.2985 237.804 23.1692C237.804 25.039 238.597 26.8182 239.98 28.0489ZM240.278 18.6421C240.35 18.5766 240.424 18.5159 240.5 18.4552C240.576 18.5159 240.65 18.5774 240.722 18.6421C241.96 19.7417 242.741 21.3607 242.741 23.169C242.741 24.9782 241.959 26.5964 240.722 27.696C240.65 27.7607 240.576 27.8238 240.5 27.8837C240.425 27.8238 240.35 27.7607 240.278 27.696C239.04 26.5964 238.259 24.9782 238.259 23.169C238.259 21.3607 239.04 19.7417 240.278 18.6421Z" fill="white"/>
<path opacity="0.2" d="M156 132.169C156 189.054 109.885 235.169 53 235.169C-3.88533 235.169 -50 189.054 -50 132.169C-50 75.2834 -3.88533 29.1687 53 29.1687C109.885 29.1687 156 75.2834 156 132.169ZM-27.8214 132.169C-27.8214 176.805 8.36356 212.99 53 212.99C97.6364 212.99 133.821 176.805 133.821 132.169C133.821 87.5323 97.6364 51.3473 53 51.3473C8.36356 51.3473 -27.8214 87.5323 -27.8214 132.169Z" fill="#EFEAFF"/>
<rect x="55.604" y="31.0925" width="3" height="14" transform="rotate(-36.717 55.604 31.0925)" fill="#7059A4"/>
<rect x="68.9766" y="141.164" width="4" height="29.9599" transform="rotate(-142.507 68.9766 141.164)" fill="#EFEAFF"/>
<rect x="160.437" y="116.726" width="2.03018" height="15.206" transform="rotate(123.355 160.437 116.726)" fill="#4C2F8D"/>
<rect x="129.804" y="21.1687" width="3" height="16" transform="rotate(21.2682 129.804 21.1687)" fill="#EFEAFF"/>
<rect x="202" y="110.169" width="48" height="8" fill="white"/>
<rect x="167" y="124.169" width="83" height="8" fill="white"/>
<rect x="37" y="60.1687" width="40" height="40" rx="12" fill="#EFEAFF"/>
<path d="M53 80.1687H61" stroke="black" stroke-width="1.5" stroke-linecap="round" stroke-linejoin="round"/>
<path d="M57 84.1687V76.1687" stroke="black" stroke-width="1.5" stroke-linecap="round" stroke-linejoin="round"/>
<path d="M54 90.1687H60C65 90.1687 67 88.1687 67 83.1687V77.1687C67 72.1687 65 70.1687 60 70.1687H54C49 70.1687 47 72.1687 47 77.1687V83.1687C47 88.1687 49 90.1687 54 90.1687Z" stroke="black" stroke-width="1.5" stroke-linecap="round" stroke-linejoin="round"/>
<path d="M85.704 74.4687H87.952L92.024 85.6687H89.952L89.232 83.6847H84.432L83.712 85.6687H81.64L85.704 74.4687ZM85.144 81.7327H88.512L86.824 77.1167L85.144 81.7327ZM98.8674 73.6687H100.819V85.6687H98.8674V84.6687C98.6114 85.026 98.2887 85.3167 97.8994 85.5407C97.51 85.7647 97.0594 85.8767 96.5474 85.8767C95.966 85.8767 95.422 85.7674 94.9154 85.5487C94.4087 85.33 93.9607 85.0287 93.5714 84.6447C93.1874 84.2554 92.886 83.8074 92.6674 83.3007C92.4487 82.794 92.3394 82.25 92.3394 81.6687C92.3394 81.0874 92.4487 80.5434 92.6674 80.0367C92.886 79.53 93.1874 79.0847 93.5714 78.7007C93.9607 78.3114 94.4087 78.0074 94.9154 77.7887C95.422 77.57 95.966 77.4607 96.5474 77.4607C97.0594 77.4607 97.51 77.5727 97.8994 77.7967C98.2887 78.0154 98.6114 78.306 98.8674 78.6687V73.6687ZM96.5714 83.9967C96.9874 83.9967 97.3554 83.8927 97.6754 83.6847C97.9954 83.4767 98.246 83.1967 98.4274 82.8447C98.6087 82.4874 98.6994 82.0954 98.6994 81.6687C98.6994 81.2367 98.6087 80.8447 98.4274 80.4927C98.246 80.1354 97.9927 79.8527 97.6674 79.6447C97.3474 79.4367 96.982 79.3327 96.5714 79.3327C96.1607 79.3327 95.7847 79.4394 95.4434 79.6527C95.1074 79.8607 94.838 80.1407 94.6354 80.4927C94.438 80.8447 94.3394 81.2367 94.3394 81.6687C94.3394 82.1007 94.4407 82.4927 94.6434 82.8447C94.846 83.1967 95.1154 83.4767 95.4514 83.6847C95.7927 83.8927 96.166 83.9967 96.5714 83.9967ZM108.664 73.6687H110.616V85.6687H108.664V84.6687C108.408 85.026 108.086 85.3167 107.696 85.5407C107.307 85.7647 106.856 85.8767 106.344 85.8767C105.763 85.8767 105.219 85.7674 104.712 85.5487C104.206 85.33 103.758 85.0287 103.368 84.6447C102.984 84.2554 102.683 83.8074 102.464 83.3007C102.246 82.794 102.136 82.25 102.136 81.6687C102.136 81.0874 102.246 80.5434 102.464 80.0367C102.683 79.53 102.984 79.0847 103.368 78.7007C103.758 78.3114 104.206 78.0074 104.712 77.7887C105.219 77.57 105.763 77.4607 106.344 77.4607C106.856 77.4607 107.307 77.5727 107.696 77.7967C108.086 78.0154 108.408 78.306 108.664 78.6687V73.6687ZM106.368 83.9967C106.784 83.9967 107.152 83.8927 107.472 83.6847C107.792 83.4767 108.043 83.1967 108.224 82.8447C108.406 82.4874 108.496 82.0954 108.496 81.6687C108.496 81.2367 108.406 80.8447 108.224 80.4927C108.043 80.1354 107.79 79.8527 107.464 79.6447C107.144 79.4367 106.779 79.3327 106.368 79.3327C105.958 79.3327 105.582 79.4394 105.24 79.6527C104.904 79.8607 104.635 80.1407 104.432 80.4927C104.235 80.8447 104.136 81.2367 104.136 81.6687C104.136 82.1007 104.238 82.4927 104.44 82.8447C104.643 83.1967 104.912 83.4767 105.248 83.6847C105.59 83.8927 105.963 83.9967 106.368 83.9967ZM118.334 89.6687H116.382V77.6687H118.334V78.6847C118.595 78.322 118.915 78.0287 119.294 77.8047C119.678 77.5754 120.126 77.4607 120.638 77.4607C121.225 77.4607 121.771 77.57 122.278 77.7887C122.785 78.0074 123.23 78.3114 123.614 78.7007C124.003 79.0847 124.305 79.53 124.518 80.0367C124.737 80.5434 124.846 81.0874 124.846 81.6687C124.846 82.25 124.737 82.7967 124.518 83.3087C124.305 83.8207 124.003 84.2714 123.614 84.6607C123.23 85.0447 122.785 85.346 122.278 85.5647C121.771 85.7834 121.225 85.8927 120.638 85.8927C120.126 85.8927 119.678 85.7807 119.294 85.5567C118.915 85.3274 118.595 85.0314 118.334 84.6687V89.6687ZM120.614 79.3407C120.209 79.3407 119.846 79.4474 119.526 79.6607C119.206 79.8687 118.955 80.1487 118.774 80.5007C118.593 80.8527 118.502 81.242 118.502 81.6687C118.502 82.0954 118.593 82.4874 118.774 82.8447C118.955 83.1967 119.206 83.4794 119.526 83.6927C119.846 83.9007 120.209 84.0047 120.614 84.0047C121.025 84.0047 121.401 83.9007 121.742 83.6927C122.083 83.4847 122.355 83.2047 122.558 82.8527C122.761 82.4954 122.862 82.1007 122.862 81.6687C122.862 81.242 122.761 80.8527 122.558 80.5007C122.355 80.1487 122.083 79.8687 121.742 79.6607C121.406 79.4474 121.03 79.3407 120.614 79.3407ZM132.164 77.6687H134.116V85.6687H132.164L132.076 84.6767C131.857 85.034 131.567 85.3247 131.204 85.5487C130.847 85.7674 130.423 85.8767 129.932 85.8767C129.34 85.8767 128.785 85.7647 128.268 85.5407C127.751 85.3167 127.295 85.0074 126.9 84.6127C126.511 84.218 126.204 83.762 125.98 83.2447C125.761 82.7274 125.652 82.1727 125.652 81.5807C125.652 81.01 125.756 80.474 125.964 79.9727C126.177 79.4714 126.473 79.0314 126.852 78.6527C127.231 78.274 127.668 77.978 128.164 77.7647C128.66 77.5514 129.193 77.4447 129.764 77.4447C130.292 77.4447 130.764 77.562 131.18 77.7967C131.601 78.0314 131.959 78.33 132.252 78.6927L132.164 77.6687ZM129.884 83.9967C130.3 83.9967 130.668 83.8927 130.988 83.6847C131.308 83.4767 131.559 83.1967 131.74 82.8447C131.921 82.4874 132.012 82.0954 132.012 81.6687C132.012 81.2367 131.921 80.8447 131.74 80.4927C131.559 80.1354 131.305 79.8527 130.98 79.6447C130.66 79.4367 130.295 79.3327 129.884 79.3327C129.473 79.3327 129.097 79.4394 128.756 79.6527C128.42 79.8607 128.151 80.1407 127.948 80.4927C127.751 80.8447 127.652 81.2367 127.652 81.6687C127.652 82.1007 127.753 82.4927 127.956 82.8447C128.159 83.1967 128.428 83.4767 128.764 83.6847C129.105 83.8927 129.479 83.9967 129.884 83.9967ZM140.761 77.6687H142.833L138.457 89.6687H136.385L137.833 85.6687L134.953 77.6687H137.089L138.809 82.9967L140.761 77.6687ZM144.116 85.6687V77.6687H146.068V78.3807C146.34 78.0927 146.666 77.866 147.044 77.7007C147.423 77.53 147.831 77.4447 148.268 77.4447C148.823 77.4447 149.332 77.5754 149.796 77.8367C150.266 78.098 150.639 78.4474 150.916 78.8847C151.199 78.4474 151.572 78.098 152.036 77.8367C152.5 77.5754 153.01 77.4447 153.564 77.4447C154.151 77.4447 154.682 77.5887 155.156 77.8767C155.636 78.1594 156.018 78.5407 156.3 79.0207C156.588 79.4954 156.732 80.026 156.732 80.6127V85.6687H154.78V81.1327C154.78 80.8234 154.703 80.5407 154.548 80.2847C154.399 80.0234 154.196 79.8154 153.94 79.6607C153.69 79.5007 153.407 79.4207 153.092 79.4207C152.778 79.4207 152.492 79.498 152.236 79.6527C151.986 79.802 151.783 80.0047 151.628 80.2607C151.474 80.5167 151.396 80.8074 151.396 81.1327V85.6687H149.444V81.1327C149.444 80.8074 149.37 80.5167 149.22 80.2607C149.071 80.0047 148.868 79.802 148.612 79.6527C148.356 79.498 148.071 79.4207 147.756 79.4207C147.447 79.4207 147.164 79.5007 146.908 79.6607C146.652 79.8154 146.447 80.0234 146.292 80.2847C146.143 80.5407 146.068 80.8234 146.068 81.1327V85.6687H144.116ZM161.699 85.8767C160.963 85.8767 160.291 85.6874 159.683 85.3087C159.08 84.93 158.597 84.4207 158.235 83.7807C157.877 83.1407 157.699 82.434 157.699 81.6607C157.699 81.0794 157.803 80.5354 158.011 80.0287C158.219 79.5167 158.504 79.0687 158.867 78.6847C159.235 78.2954 159.661 77.9914 160.147 77.7727C160.632 77.554 161.149 77.4447 161.699 77.4447C162.323 77.4447 162.893 77.578 163.411 77.8447C163.933 78.106 164.376 78.466 164.739 78.9247C165.101 79.3834 165.365 79.906 165.531 80.4927C165.696 81.0794 165.733 81.6927 165.643 82.3327H159.795C159.869 82.6314 159.992 82.9007 160.163 83.1407C160.333 83.3754 160.549 83.5647 160.811 83.7087C161.072 83.8474 161.368 83.9194 161.699 83.9247C162.04 83.93 162.349 83.85 162.627 83.6847C162.909 83.514 163.144 83.2847 163.331 82.9967L165.323 83.4607C164.997 84.17 164.512 84.7514 163.867 85.2047C163.221 85.6527 162.499 85.8767 161.699 85.8767ZM159.731 80.8687H163.667C163.608 80.5487 163.483 80.2607 163.291 80.0047C163.104 79.7434 162.872 79.5354 162.595 79.3807C162.317 79.226 162.019 79.1487 161.699 79.1487C161.379 79.1487 161.083 79.226 160.811 79.3807C160.539 79.53 160.307 79.7354 160.115 79.9967C159.928 80.2527 159.8 80.5434 159.731 80.8687ZM174.272 80.6127V85.6687H172.32V81.1247C172.32 80.81 172.243 80.5247 172.088 80.2687C171.934 80.0074 171.726 79.802 171.464 79.6527C171.208 79.498 170.923 79.4207 170.608 79.4207C170.294 79.4207 170.006 79.498 169.744 79.6527C169.488 79.802 169.283 80.0074 169.128 80.2687C168.979 80.5247 168.904 80.81 168.904 81.1247V85.6687H166.952L166.944 77.6687H168.896L168.904 78.3807C169.176 78.0927 169.502 77.866 169.88 77.7007C170.259 77.53 170.667 77.4447 171.104 77.4447C171.686 77.4447 172.216 77.5887 172.696 77.8767C173.176 78.1594 173.558 78.5407 173.84 79.0207C174.128 79.4954 174.272 80.026 174.272 80.6127ZM180.154 79.6207H178.602V85.6687H176.65V79.6207H175.466V77.6687H176.65V75.1567H178.602V77.6687H180.154V79.6207ZM185.444 85.6687V77.6687H187.396V78.3807C187.668 78.0927 187.994 77.866 188.372 77.7007C188.751 77.53 189.159 77.4447 189.596 77.4447C190.151 77.4447 190.66 77.5754 191.124 77.8367C191.594 78.098 191.967 78.4474 192.244 78.8847C192.527 78.4474 192.9 78.098 193.364 77.8367C193.828 77.5754 194.338 77.4447 194.892 77.4447C195.479 77.4447 196.01 77.5887 196.484 77.8767C196.964 78.1594 197.346 78.5407 197.628 79.0207C197.916 79.4954 198.06 80.026 198.06 80.6127V85.6687H196.108V81.1327C196.108 80.8234 196.031 80.5407 195.876 80.2847C195.727 80.0234 195.524 79.8154 195.268 79.6607C195.018 79.5007 194.735 79.4207 194.42 79.4207C194.106 79.4207 193.82 79.498 193.564 79.6527C193.314 79.802 193.111 80.0047 192.956 80.2607C192.802 80.5167 192.724 80.8074 192.724 81.1327V85.6687H190.772V81.1327C190.772 80.8074 190.698 80.5167 190.548 80.2607C190.399 80.0047 190.196 79.802 189.94 79.6527C189.684 79.498 189.399 79.4207 189.084 79.4207C188.775 79.4207 188.492 79.5007 188.236 79.6607C187.98 79.8154 187.775 80.0234 187.62 80.2847C187.471 80.5407 187.396 80.8234 187.396 81.1327V85.6687H185.444ZM203.027 85.8767C202.291 85.8767 201.619 85.6874 201.011 85.3087C200.408 84.93 199.926 84.4207 199.563 83.7807C199.206 83.1407 199.027 82.434 199.027 81.6607C199.027 81.0794 199.131 80.5354 199.339 80.0287C199.547 79.5167 199.832 79.0687 200.195 78.6847C200.563 78.2954 200.99 77.9914 201.475 77.7727C201.96 77.554 202.478 77.4447 203.027 77.4447C203.651 77.4447 204.222 77.578 204.739 77.8447C205.262 78.106 205.704 78.466 206.067 78.9247C206.43 79.3834 206.694 79.906 206.859 80.4927C207.024 81.0794 207.062 81.6927 206.971 82.3327H201.123C201.198 82.6314 201.32 82.9007 201.491 83.1407C201.662 83.3754 201.878 83.5647 202.139 83.7087C202.4 83.8474 202.696 83.9194 203.027 83.9247C203.368 83.93 203.678 83.85 203.955 83.6847C204.238 83.514 204.472 83.2847 204.659 82.9967L206.651 83.4607C206.326 84.17 205.84 84.7514 205.195 85.2047C204.55 85.6527 203.827 85.8767 203.027 85.8767ZM201.059 80.8687H204.995C204.936 80.5487 204.811 80.2607 204.619 80.0047C204.432 79.7434 204.2 79.5354 203.923 79.3807C203.646 79.226 203.347 79.1487 203.027 79.1487C202.707 79.1487 202.411 79.226 202.139 79.3807C201.867 79.53 201.635 79.7354 201.443 79.9967C201.256 80.2527 201.128 80.5434 201.059 80.8687ZM212.561 79.6207H211.009V85.6687H209.057V79.6207H207.873V77.6687H209.057V75.1567H211.009V77.6687H212.561V79.6207ZM221.335 80.6127V85.6687H219.383V81.1247C219.383 80.81 219.306 80.5247 219.151 80.2687C218.996 80.0074 218.788 79.802 218.527 79.6527C218.271 79.498 217.986 79.4207 217.671 79.4207C217.356 79.4207 217.068 79.498 216.807 79.6527C216.551 79.802 216.346 80.0074 216.191 80.2687C216.042 80.5247 215.967 80.81 215.967 81.1247V85.6687H214.015L214.007 73.6687H215.959L215.967 78.3807C216.239 78.0927 216.564 77.866 216.943 77.7007C217.322 77.53 217.73 77.4447 218.167 77.4447C218.748 77.4447 219.279 77.5887 219.759 77.8767C220.239 78.1594 220.62 78.5407 220.903 79.0207C221.191 79.4954 221.335 80.026 221.335 80.6127ZM226.293 85.8767C225.557 85.8767 224.885 85.6874 224.277 85.3087C223.674 84.93 223.191 84.4234 222.829 83.7887C222.471 83.1487 222.293 82.442 222.293 81.6687C222.293 81.082 222.397 80.5354 222.605 80.0287C222.813 79.5167 223.098 79.0687 223.461 78.6847C223.829 78.2954 224.255 77.9914 224.741 77.7727C225.226 77.554 225.743 77.4447 226.293 77.4447C227.029 77.4447 227.698 77.634 228.301 78.0127C228.909 78.3914 229.391 78.9007 229.749 79.5407C230.111 80.1807 230.293 80.89 230.293 81.6687C230.293 82.25 230.189 82.794 229.981 83.3007C229.773 83.8074 229.485 84.2554 229.117 84.6447C228.754 85.0287 228.33 85.33 227.845 85.5487C227.365 85.7674 226.847 85.8767 226.293 85.8767ZM226.293 83.9247C226.682 83.9247 227.031 83.8207 227.341 83.6127C227.65 83.4047 227.893 83.13 228.069 82.7887C228.25 82.4474 228.341 82.074 228.341 81.6687C228.341 81.2527 228.247 80.874 228.061 80.5327C227.879 80.186 227.631 79.9114 227.317 79.7087C227.007 79.5007 226.666 79.3967 226.293 79.3967C225.909 79.3967 225.562 79.5007 225.253 79.7087C224.943 79.9167 224.698 80.194 224.517 80.5407C224.335 80.8874 224.245 81.2634 224.245 81.6687C224.245 82.09 224.338 82.4714 224.525 82.8127C224.711 83.154 224.959 83.426 225.269 83.6287C225.583 83.826 225.925 83.9247 226.293 83.9247ZM237.617 73.6687H239.569V85.6687H237.617V84.6687C237.361 85.026 237.039 85.3167 236.649 85.5407C236.26 85.7647 235.809 85.8767 235.297 85.8767C234.716 85.8767 234.172 85.7674 233.665 85.5487C233.159 85.33 232.711 85.0287 232.321 84.6447C231.937 84.2554 231.636 83.8074 231.417 83.3007C231.199 82.794 231.089 82.25 231.089 81.6687C231.089 81.0874 231.199 80.5434 231.417 80.0367C231.636 79.53 231.937 79.0847 232.321 78.7007C232.711 78.3114 233.159 78.0074 233.665 77.7887C234.172 77.57 234.716 77.4607 235.297 77.4607C235.809 77.4607 236.26 77.5727 236.649 77.7967C237.039 78.0154 237.361 78.306 237.617 78.6687V73.6687ZM235.321 83.9967C235.737 83.9967 236.105 83.8927 236.425 83.6847C236.745 83.4767 236.996 83.1967 237.177 82.8447C237.359 82.4874 237.449 82.0954 237.449 81.6687C237.449 81.2367 237.359 80.8447 237.177 80.4927C236.996 80.1354 236.743 79.8527 236.417 79.6447C236.097 79.4367 235.732 79.3327 235.321 79.3327C234.911 79.3327 234.535 79.4394 234.193 79.6527C233.857 79.8607 233.588 80.1407 233.385 80.4927C233.188 80.8447 233.089 81.2367 233.089 81.6687C233.089 82.1007 233.191 82.4927 233.393 82.8447C233.596 83.1967 233.865 83.4767 234.201 83.6847C234.543 83.8927 234.916 83.9967 235.321 83.9967Z" fill="white"/>
</g>
<defs>
<clipPath id="clip0_643_2357">
<rect x="18" y="7.1687" width="242" height="145" rx="12" fill="white"/>
</clipPath>
</defs>
</svg>
