<svg width="32" height="33" viewBox="0 0 32 33" fill="none" xmlns="http://www.w3.org/2000/svg">
<path fill-rule="evenodd" clip-rule="evenodd" d="M2.66663 16.3534C2.66663 9.32949 8.27996 3 16.0266 3C23.6 3 29.3333 9.20931 29.3333 16.3133C29.3333 24.5523 22.6133 29.6667 16 29.6667C13.8133 29.6667 11.3866 29.0791 9.43996 27.9307C8.75996 27.5168 8.18663 27.2096 7.45329 27.45L4.75996 28.2512C4.07996 28.4649 3.46663 27.9307 3.66663 27.2096L4.55996 24.2185C4.70663 23.8045 4.67996 23.3639 4.46663 23.0167C3.31996 20.9069 2.66663 18.5967 2.66663 16.3534ZM14.2666 16.3534C14.2666 17.3015 15.0266 18.0626 15.9733 18.0759C16.92 18.0759 17.68 17.3015 17.68 16.3667C17.68 15.4186 16.92 14.6575 15.9733 14.6575C15.04 14.6441 14.2666 15.4186 14.2666 16.3534ZM20.4133 16.3667C20.4133 17.3015 21.1733 18.0759 22.12 18.0759C23.0666 18.0759 23.8266 17.3015 23.8266 16.3667C23.8266 15.4186 23.0666 14.6575 22.12 14.6575C21.1733 14.6575 20.4133 15.4186 20.4133 16.3667ZM9.82663 18.0759C8.89329 18.0759 8.11996 17.3015 8.11996 16.3667C8.11996 15.4186 8.87996 14.6575 9.82663 14.6575C10.7733 14.6575 11.5333 15.4186 11.5333 16.3667C11.5333 17.3015 10.7733 18.0626 9.82663 18.0759Z" fill="url(#paint0_linear_627_20229)"/>
<defs>
<linearGradient id="paint0_linear_627_20229" x1="29.3333" y1="29.6667" x2="-2.39765" y2="20.4666" gradientUnits="userSpaceOnUse">
<stop stop-color="#246BFD"/>
<stop offset="1" stop-color="#6F9EFF"/>
</linearGradient>
</defs>
</svg>
