<svg width="35" height="35" viewBox="0 0 35 35" fill="none" xmlns="http://www.w3.org/2000/svg">
<path fill-rule="evenodd" clip-rule="evenodd" d="M24.3036 2.9317C26.4015 2.80058 28.4702 3.529 30.029 4.95669C31.4567 6.51549 32.1851 8.58418 32.0686 10.6966V24.3033C32.1997 26.4157 31.4567 28.4844 30.0436 30.0432C28.4848 31.4709 26.4015 32.1993 24.3036 32.0682H10.6968C8.58435 32.1993 6.51564 31.4709 4.95683 30.0432C3.52912 28.4844 2.8007 26.4157 2.93182 24.3033V10.6966C2.8007 8.58418 3.52912 6.51549 4.95683 4.95669C6.51564 3.529 8.58435 2.80058 10.6968 2.9317H24.3036ZM16.0143 24.5658L25.8188 14.7323C26.7074 13.829 26.7074 12.3722 25.8188 11.4835L23.9249 9.58967C23.0216 8.68644 21.5648 8.68644 20.6616 9.58967L19.6855 10.5803C19.5398 10.726 19.5398 10.9737 19.6855 11.1193C19.6855 11.1193 22.0019 13.4211 22.0456 13.4794C22.2058 13.6542 22.3078 13.8873 22.3078 14.1495C22.3078 14.674 21.8853 15.111 21.3463 15.111C21.0986 15.111 20.8655 15.0091 20.7053 14.8488L18.2724 12.4305C18.1558 12.3139 17.9518 12.3139 17.8353 12.4305L10.8862 19.3795C10.4054 19.8603 10.1286 20.5013 10.1141 21.186L10.0266 24.6387C10.0266 24.8281 10.0849 25.0029 10.216 25.134C10.3472 25.2651 10.522 25.338 10.7114 25.338H14.1349C14.8342 25.338 15.5044 25.0612 16.0143 24.5658Z" fill="#246BFD"/>
</svg>
