<svg width="320" height="448" viewBox="0 0 320 448" fill="none" xmlns="http://www.w3.org/2000/svg">
<path d="M284.811 114C284.186 114 283.57 113.844 283.018 113.546C282.466 113.247 281.995 112.816 281.647 112.289C281.299 111.762 281.085 111.157 281.022 110.526C280.96 109.895 281.052 109.258 281.291 108.672C283.312 104.119 284.371 99.1866 284.398 94.1934C284.426 89.2001 283.422 84.2563 281.45 79.6802C280.974 78.7777 280.871 77.7204 281.163 76.7408C281.456 75.7612 282.121 74.9395 283.011 74.4566C283.901 73.9737 284.944 73.869 285.911 74.1656C286.877 74.4623 287.688 75.1359 288.164 76.0383C290.664 81.6211 291.971 87.6763 292 93.807C292.028 99.9377 290.778 106.005 288.332 111.612C288.044 112.319 287.556 112.923 286.929 113.348C286.303 113.774 285.565 114 284.811 114Z" fill="#EA4A4A"/>
<path d="M127.766 246C127.021 246 126.293 245.774 125.674 245.352C125.054 244.929 124.572 244.329 124.287 243.626C124.002 242.924 123.927 242.15 124.072 241.405C124.218 240.659 124.576 239.974 125.103 239.436C132.466 232.343 137.329 222.967 138.937 212.763C140.544 202.559 138.806 192.099 133.992 183.007C133.703 182.573 133.505 182.085 133.408 181.57C133.311 181.056 133.319 180.526 133.429 180.015C133.54 179.503 133.752 179.02 134.052 178.596C134.353 178.171 134.735 177.813 135.175 177.544C135.616 177.276 136.105 177.102 136.614 177.033C137.123 176.965 137.64 177.003 138.134 177.146C138.627 177.288 139.087 177.533 139.485 177.863C139.883 178.194 140.211 178.605 140.448 179.069C146.095 189.64 148.175 201.816 146.364 213.714C144.553 225.612 138.952 236.57 130.429 244.892C130.078 245.247 129.663 245.528 129.206 245.718C128.749 245.908 128.259 246.004 127.766 246Z" fill="#4C2F8D"/>
<path d="M191.19 201C190.179 201 189.21 200.598 188.495 199.883L182.116 193.507C181.762 193.153 181.481 192.732 181.29 192.27C181.098 191.807 181 191.311 181 190.811C181 190.31 181.099 189.815 181.291 189.352C181.482 188.89 181.763 188.469 182.117 188.116C182.833 187.401 183.802 187 184.813 187C185.314 187 185.809 187.099 186.272 187.291C186.734 187.482 187.154 187.763 187.508 188.118L193.884 194.494C194.417 195.027 194.78 195.706 194.927 196.445C195.074 197.184 194.998 197.951 194.71 198.647C194.422 199.343 193.933 199.939 193.307 200.357C192.68 200.776 191.943 201 191.19 201Z" fill="#7059A4"/>
<path d="M256.384 134.232C256.005 134.626 255.516 134.896 254.978 135.009C254.44 135.121 253.877 135.071 253.361 134.865C252.845 134.658 252.398 134.305 252.078 133.849C251.758 133.393 251.578 132.856 251.561 132.304C251.554 124.808 249.07 117.472 244.493 111.437C239.917 105.401 233.505 101.004 226.253 98.9282C225.877 98.8604 225.518 98.717 225.197 98.5066C224.876 98.2963 224.6 98.0235 224.386 97.705C224.172 97.3865 224.024 97.0289 223.952 96.6543C223.88 96.2797 223.885 95.896 223.967 95.5266C224.049 95.1572 224.206 94.81 224.428 94.5063C224.65 94.2026 224.933 93.9487 225.26 93.7603C225.586 93.5719 225.949 93.453 226.326 93.4108C226.703 93.3685 227.086 93.4039 227.452 93.5148C235.91 95.9018 243.402 100.991 248.771 107.995C254.139 114.999 257.085 123.527 257.152 132.262C257.161 132.628 257.098 132.99 256.967 133.328C256.835 133.666 256.637 133.974 256.384 134.232Z" fill="#4C2F8D"/>
<path d="M256.462 -15.2414C257.204 -15.1732 257.908 -14.8819 258.486 -14.4046C259.064 -13.9272 259.49 -13.2851 259.709 -12.5594C259.929 -11.8338 259.933 -11.0572 259.72 -10.3278C259.507 -9.59838 259.087 -8.94895 258.514 -8.46158C250.533 -2.07186 244.833 6.82078 242.299 16.8351C239.766 26.8494 240.54 37.4248 244.503 46.9187C244.75 47.3765 244.903 47.8815 244.953 48.4027C245.002 48.9239 244.946 49.4502 244.789 49.9495C244.632 50.4487 244.377 50.9103 244.039 51.3059C243.701 51.7015 243.288 52.0228 242.825 52.2501C242.362 52.4774 241.858 52.6059 241.345 52.6276C240.832 52.6494 240.321 52.564 239.842 52.3766C239.364 52.1893 238.928 51.904 238.562 51.5382C238.196 51.1724 237.907 50.7339 237.714 50.2496C233.056 39.2067 232.099 26.8917 234.99 15.209C237.881 3.52619 244.46 -6.87356 253.709 -14.3821C254.09 -14.7034 254.53 -14.9447 255.002 -15.0922C255.475 -15.2397 255.971 -15.2904 256.462 -15.2414Z" fill="#4C2F8D"/>
<path d="M116.189 161H109.811C108.8 161 107.831 160.579 107.116 159.828C106.401 159.078 106 158.061 106 157C106 155.939 106.401 154.922 107.116 154.172C107.831 153.421 108.8 153 109.811 153H116.189C117.2 153 118.169 153.421 118.884 154.172C119.599 154.922 120 155.939 120 157C120 158.061 119.599 159.078 118.884 159.828C118.169 160.579 117.2 161 116.189 161Z" fill="#7059A4"/>
<path d="M3.82769 305C3.0706 305 2.33055 304.775 1.7011 304.355C1.07166 303.934 0.581082 303.336 0.291379 302.637C0.00167579 301.937 -0.0741339 301.168 0.0735223 300.425C0.221179 299.682 0.585673 299 1.12093 298.465C2.73778 296.896 4.67627 295.697 6.80223 294.952C8.92818 294.206 11.1908 293.931 13.4334 294.147H13.5176C14.736 294.347 15.9842 294.264 17.1653 293.904C18.3465 293.544 19.4289 292.917 20.3286 292.072C21.1813 291.16 21.8122 290.064 22.1721 288.869C22.532 287.674 22.6112 286.411 22.4036 285.181C22.1562 282.935 22.4164 280.662 23.1649 278.531C23.9135 276.399 25.1313 274.463 26.7285 272.865C28.3257 271.267 30.2614 270.049 32.3927 269.299C34.524 268.55 36.7965 268.288 39.0423 268.535C40.2794 268.784 41.5589 268.723 42.7668 268.358C43.9747 267.993 45.0737 267.335 45.966 266.442C46.8583 265.55 47.5162 264.451 47.8813 263.243C48.2463 262.035 48.3072 260.756 48.0584 259.519C47.8451 257.274 48.1218 255.01 48.8695 252.883C49.6171 250.756 50.8178 248.817 52.3885 247.199C52.7407 246.826 53.1643 246.528 53.6341 246.322C54.1039 246.116 54.6103 246.007 55.1232 246C55.6361 245.994 56.1451 246.09 56.6199 246.285C57.0947 246.479 57.5257 246.766 57.8873 247.13C58.2488 247.494 58.5336 247.927 58.7246 248.403C58.9156 248.879 59.009 249.388 58.9993 249.901C58.9896 250.414 58.8769 250.92 58.6679 251.388C58.4589 251.856 58.158 252.278 57.7828 252.628C56.9303 253.54 56.2987 254.636 55.937 255.83C55.5752 257.025 55.4928 258.287 55.6963 259.519C55.9432 261.766 55.6823 264.039 54.9328 266.171C54.1834 268.304 52.9645 270.241 51.3663 271.839C49.768 273.437 47.8312 274.656 45.6988 275.405C43.5664 276.155 41.2929 276.415 39.0461 276.169C37.8119 275.92 36.5355 275.981 35.3306 276.346C34.1257 276.711 33.0298 277.368 32.1405 278.259C31.2513 279.15 30.5964 280.248 30.2341 281.453C29.8719 282.659 29.8136 283.935 30.0644 285.169C30.2815 287.412 30.0076 289.675 29.2619 291.801C28.5161 293.927 27.3163 295.865 25.7459 297.481C24.1226 299.041 22.1832 300.233 20.059 300.978C17.9348 301.723 15.6753 302.003 13.4334 301.799H13.3454C12.1276 301.598 10.8797 301.68 9.69896 302.04C8.51824 302.4 7.43658 303.028 6.53828 303.874C6.18271 304.231 5.76025 304.514 5.29512 304.707C4.82999 304.9 4.33133 305 3.82769 305Z" fill="#BBACE8"/>
<path d="M261.133 312C260.513 312 259.908 311.817 259.392 311.475C258.877 311.134 258.476 310.648 258.238 310.079C258.001 309.511 257.939 308.885 258.06 308.282C258.181 307.678 258.479 307.124 258.917 306.689C265.7 299.648 274.63 295.022 284.327 293.526C294.023 292.03 303.946 293.747 312.561 298.413C313.246 298.85 313.732 299.534 313.918 300.321C314.103 301.108 313.973 301.935 313.555 302.628C313.137 303.322 312.463 303.826 311.677 304.035C310.891 304.244 310.054 304.142 309.343 303.749C301.951 299.698 293.407 298.221 285.072 299.551C276.737 300.881 269.089 304.942 263.348 311.088C262.761 311.672 261.964 312 261.133 312Z" fill="#4C2F8D"/>
<path d="M232.177 259C231.164 259.001 230.191 258.599 229.474 257.883L223.073 251.481C222.377 250.76 221.991 249.794 222 248.791C222.009 247.788 222.411 246.829 223.12 246.12C223.829 245.411 224.788 245.009 225.79 245C226.793 244.991 227.759 245.377 228.48 246.074L234.881 252.472C235.415 253.007 235.779 253.688 235.927 254.43C236.074 255.171 235.998 255.94 235.709 256.639C235.42 257.338 234.93 257.935 234.301 258.355C233.672 258.775 232.933 259 232.177 259Z" fill="#7059A4"/>
<path d="M158.317 151.997C157.78 151.997 157.261 151.803 156.846 151.447C156.432 151.091 156.148 150.596 156.044 150.046C155.94 149.495 156.022 148.924 156.275 148.43C156.529 147.936 156.939 147.549 157.435 147.336C160.798 145.778 164.439 144.982 168.117 145C171.795 145.019 175.428 145.851 178.777 147.443C179.319 147.746 179.723 148.261 179.901 148.876C180.079 149.491 180.016 150.154 179.726 150.721C179.436 151.287 178.943 151.71 178.356 151.896C177.768 152.082 177.134 152.017 176.593 151.713C173.847 150.458 170.881 149.819 167.885 149.837C164.889 149.854 161.93 150.528 159.198 151.815C158.919 151.935 158.619 151.997 158.317 151.997Z" fill="#EA4A4A"/>
<path d="M165.715 99.53C165.303 99.9402 164.767 100.2 164.198 100.264C163.629 100.329 163.061 100.194 162.593 99.884C162.125 99.5735 161.785 99.1063 161.631 98.5622C161.477 98.018 161.519 97.4307 161.75 96.9006C163.233 93.2259 165.467 89.8796 168.304 87.0815C171.141 84.2835 174.518 82.097 178.212 80.6658C178.842 80.4669 179.516 80.5236 180.086 80.8233C180.657 81.123 181.076 81.6413 181.253 82.2641C181.431 82.8869 181.35 83.5632 181.03 84.1443C180.71 84.7253 180.177 85.1635 179.548 85.3624C176.554 86.5709 173.826 88.3846 171.538 90.6865C169.25 92.9885 167.453 95.7276 166.264 98.7274C166.133 99.0263 165.947 99.2989 165.715 99.53Z" fill="#EA4A4A"/>
<path d="M271 233C269.939 233 268.922 232.598 268.172 231.884C267.421 231.169 267 230.199 267 229.188V222.812C267 221.801 267.421 220.831 268.172 220.116C268.922 219.402 269.939 219 271 219C272.061 219 273.078 219.402 273.828 220.116C274.579 220.831 275 221.801 275 222.812V229.188C275 230.199 274.579 231.169 273.828 231.884C273.078 232.598 272.061 233 271 233Z" fill="#EA4A4A"/>
<path d="M304 175C302.939 175 301.922 174.598 301.172 173.884C300.421 173.169 300 172.199 300 171.188V164.812C300 163.801 300.421 162.831 301.172 162.116C301.922 161.402 302.939 161 304 161C305.061 161 306.078 161.402 306.828 162.116C307.579 162.831 308 163.801 308 164.812V171.188C308 172.199 307.579 173.169 306.828 173.884C306.078 174.598 305.061 175 304 175Z" fill="#EA4A4A"/>
<path d="M231.187 290H224.813C223.801 290 222.832 289.579 222.117 288.828C221.402 288.078 221 287.061 221 286C221 284.939 221.402 283.922 222.117 283.172C222.832 282.421 223.801 282 224.813 282H231.187C232.199 282 233.168 282.421 233.883 283.172C234.598 283.922 235 284.939 235 286C235 287.061 234.598 288.078 233.883 288.828C233.168 289.579 232.199 290 231.187 290Z" fill="#EA4A4A"/>
<path d="M35.3068 222.074C35.2667 221.546 35.3591 221.017 35.5757 220.532C35.7924 220.047 36.1268 219.622 36.5492 219.295C36.9716 218.967 37.469 218.747 37.9976 218.655C38.5261 218.562 39.0694 218.599 39.5794 218.763C43.552 220.178 47.7828 220.757 51.9994 220.462C56.216 220.166 60.325 219.003 64.0619 217.047C64.7933 216.588 65.6792 216.433 66.5248 216.617C67.3703 216.802 68.1063 217.31 68.5708 218.031C69.0353 218.752 69.1902 219.626 69.0015 220.46C68.8128 221.295 68.2959 222.022 67.5645 222.482C63.0116 224.948 57.9838 226.438 52.8107 226.853C47.6375 227.269 42.436 226.601 37.5473 224.894C36.9323 224.696 36.391 224.323 35.9921 223.821C35.5932 223.319 35.3547 222.711 35.3068 222.074Z" fill="#EA4A4A"/>
<path d="M110 319C108.939 319 107.922 318.599 107.172 317.884C106.421 317.169 106 316.2 106 315.189V308.811C106 307.8 106.421 306.831 107.172 306.116C107.922 305.401 108.939 305 110 305C111.061 305 112.078 305.401 112.828 306.116C113.579 306.831 114 307.8 114 308.811V315.189C114 316.2 113.579 317.169 112.828 317.884C112.078 318.599 111.061 319 110 319Z" fill="#EA4A4A"/>
<path d="M147.767 326.204C147.69 325.193 148.017 324.193 148.677 323.424L154.578 316.559C155.245 315.81 156.179 315.353 157.18 315.286C158.18 315.219 159.167 315.548 159.928 316.201C160.688 316.855 161.162 317.781 161.246 318.78C161.33 319.779 161.019 320.771 160.378 321.542L154.481 328.407C153.988 328.981 153.336 329.395 152.607 329.598C151.879 329.801 151.106 329.783 150.388 329.547C149.669 329.312 149.037 328.868 148.57 328.273C148.104 327.678 147.824 326.958 147.767 326.204Z" fill="#7059A4"/>
<path d="M215.767 212.204C215.69 211.193 216.017 210.193 216.677 209.424L222.578 202.559C223.245 201.81 224.179 201.353 225.18 201.286C226.18 201.219 227.167 201.548 227.928 202.201C228.688 202.855 229.162 203.781 229.246 204.78C229.33 205.779 229.019 206.771 228.378 207.542L222.481 214.407C221.988 214.981 221.336 215.395 220.607 215.598C219.879 215.801 219.106 215.783 218.388 215.547C217.669 215.312 217.037 214.868 216.57 214.273C216.104 213.678 215.824 212.958 215.767 212.204Z" fill="#7059A4"/>
<path d="M305.767 97.2038C305.69 96.1933 306.017 95.1934 306.677 94.424L312.578 87.5589C313.245 86.81 314.179 86.3529 315.18 86.286C316.18 86.2191 317.167 86.5477 317.928 87.2012C318.688 87.8546 319.162 88.7806 319.246 89.7796C319.33 90.7786 319.019 91.7707 318.378 92.5423L312.481 99.4072C311.988 99.9805 311.336 100.395 310.607 100.598C309.879 100.801 309.106 100.783 308.388 100.547C307.669 100.312 307.037 99.8681 306.57 99.2729C306.104 98.6778 305.824 97.9577 305.767 97.2038Z" fill="#7059A4"/>
<path d="M173.289 366.265C173.232 365.51 173.4 364.755 173.772 364.096C174.144 363.436 174.703 362.902 175.379 362.56C176.054 362.219 176.816 362.085 177.567 362.177C178.319 362.268 179.027 362.58 179.601 363.073C181.287 364.567 182.629 366.41 183.532 368.473C184.436 370.537 184.881 372.773 184.835 375.025L184.842 375.109C184.734 376.339 184.911 377.577 185.358 378.728C185.806 379.879 186.513 380.911 187.424 381.744C188.397 382.526 189.538 383.072 190.757 383.341C191.976 383.61 193.24 383.594 194.452 383.294C196.673 382.878 198.958 382.966 201.14 383.552C203.322 384.137 205.345 385.206 207.058 386.678C208.772 388.15 210.133 389.988 211.041 392.057C211.949 394.126 212.381 396.372 212.305 398.63C212.15 399.882 212.307 401.154 212.762 402.331C213.217 403.508 213.956 404.554 214.913 405.376C215.87 406.199 217.016 406.772 218.248 407.045C219.48 407.318 220.76 407.282 221.975 406.941C224.197 406.559 226.475 406.664 228.653 407.249C230.83 407.834 232.854 408.885 234.586 410.33C234.984 410.653 235.313 411.053 235.554 411.506C235.795 411.959 235.942 412.455 235.988 412.966C236.033 413.477 235.975 413.992 235.817 414.48C235.659 414.968 235.405 415.42 235.07 415.808C234.734 416.196 234.324 416.512 233.864 416.739C233.403 416.965 232.902 417.097 232.39 417.126C231.878 417.154 231.365 417.08 230.882 416.907C230.4 416.734 229.956 416.466 229.579 416.118C228.606 415.337 227.465 414.79 226.247 414.519C225.028 414.248 223.763 414.261 222.551 414.557C220.329 414.973 218.042 414.884 215.859 414.297C213.677 413.711 211.654 412.641 209.939 411.168C208.225 409.695 206.864 407.855 205.956 405.786C205.048 403.716 204.616 401.468 204.693 399.209C204.848 397.96 204.69 396.692 204.236 395.518C203.781 394.344 203.043 393.301 202.088 392.481C201.132 391.662 199.989 391.091 198.759 390.821C197.53 390.551 196.252 390.589 195.041 390.932C192.821 391.317 190.544 391.215 188.368 390.632C186.191 390.048 184.168 388.998 182.438 387.554C180.761 386.053 179.425 384.209 178.522 382.147C177.619 380.085 177.17 377.853 177.204 375.602L177.197 375.514C177.307 374.285 177.13 373.047 176.682 371.896C176.235 370.746 175.527 369.715 174.615 368.883C174.233 368.555 173.919 368.155 173.691 367.706C173.463 367.257 173.327 366.767 173.289 366.265Z" fill="#BBACE8"/>
<path d="M226.289 143.265C226.232 142.51 226.4 141.755 226.772 141.096C227.144 140.436 227.703 139.902 228.379 139.56C229.054 139.219 229.816 139.085 230.567 139.177C231.319 139.268 232.027 139.58 232.601 140.073C234.287 141.567 235.629 143.41 236.532 145.473C237.436 147.537 237.881 149.773 237.835 152.025L237.842 152.109C237.734 153.339 237.911 154.577 238.358 155.728C238.806 156.879 239.513 157.911 240.424 158.744C241.397 159.526 242.538 160.072 243.757 160.341C244.976 160.61 246.24 160.594 247.452 160.294C249.673 159.878 251.958 159.966 254.14 160.552C256.322 161.137 258.345 162.206 260.058 163.678C261.772 165.15 263.133 166.988 264.041 169.057C264.949 171.126 265.381 173.372 265.305 175.63C265.15 176.882 265.307 178.154 265.762 179.331C266.217 180.508 266.956 181.554 267.913 182.376C268.87 183.199 270.016 183.772 271.248 184.045C272.48 184.318 273.76 184.282 274.975 183.941C277.197 183.559 279.475 183.664 281.653 184.249C283.83 184.834 285.854 185.885 287.586 187.33C287.984 187.653 288.313 188.053 288.554 188.506C288.795 188.959 288.942 189.455 288.988 189.966C289.033 190.477 288.975 190.992 288.817 191.48C288.659 191.968 288.405 192.42 288.07 192.808C287.734 193.196 287.324 193.512 286.864 193.739C286.403 193.965 285.902 194.097 285.39 194.126C284.878 194.154 284.365 194.08 283.882 193.907C283.4 193.734 282.956 193.466 282.579 193.118C281.606 192.337 280.465 191.79 279.247 191.519C278.028 191.248 276.763 191.261 275.551 191.557C273.329 191.973 271.042 191.884 268.859 191.297C266.677 190.711 264.654 189.641 262.939 188.168C261.225 186.695 259.864 184.855 258.956 182.786C258.048 180.716 257.616 178.468 257.693 176.209C257.848 174.96 257.69 173.692 257.236 172.518C256.781 171.344 256.043 170.301 255.088 169.481C254.132 168.662 252.989 168.091 251.759 167.821C250.53 167.551 249.252 167.589 248.041 167.932C245.821 168.317 243.544 168.215 241.368 167.632C239.191 167.048 237.168 165.998 235.438 164.554C233.761 163.053 232.425 161.209 231.522 159.147C230.619 157.085 230.17 154.853 230.204 152.602L230.197 152.514C230.307 151.285 230.13 150.047 229.682 148.896C229.235 147.746 228.527 146.715 227.615 145.883C227.233 145.555 226.919 145.155 226.691 144.706C226.463 144.257 226.327 143.767 226.289 143.265Z" fill="#BBACE8"/>
<path d="M34.7683 367.764L34.2873 361.403C34.2112 360.395 34.5583 359.397 35.2524 358.628C35.9466 357.859 36.9308 357.382 37.9887 357.302C39.0465 357.222 40.0913 357.545 40.8932 358.201C41.6951 358.857 42.1884 359.792 42.2646 360.8L42.7455 367.16C42.8217 368.168 42.4745 369.166 41.7804 369.936C41.0863 370.705 40.102 371.182 39.0442 371.262C37.9863 371.342 36.9415 371.018 36.1396 370.362C35.3378 369.706 34.8445 368.771 34.7683 367.764Z" fill="#7059A4"/>
<path d="M100.287 384.527C100.23 383.777 100.395 383.027 100.761 382.372C101.126 381.717 101.676 381.186 102.34 380.847C103.005 380.509 103.754 380.376 104.494 380.468C105.233 380.559 105.93 380.869 106.495 381.36C115.615 388.93 122.017 399.321 124.71 410.925C127.404 422.53 126.239 434.701 121.396 445.558C120.931 446.427 120.15 447.078 119.217 447.375C118.284 447.671 117.273 447.589 116.398 447.146C115.523 446.703 114.852 445.934 114.528 445.001C114.204 444.068 114.251 443.045 114.66 442.148C118.873 432.829 119.874 422.349 117.506 412.378C115.137 402.406 109.534 393.517 101.59 387.127C100.832 386.469 100.363 385.534 100.287 384.527Z" fill="#4C2F8D"/>
<path d="M251.768 366.216C251.692 365.208 252.02 364.212 252.679 363.445L258.556 356.603C258.882 356.223 259.28 355.912 259.727 355.686C260.174 355.46 260.661 355.325 261.16 355.287C261.659 355.25 262.161 355.311 262.637 355.467C263.112 355.623 263.552 355.872 263.932 356.198C264.699 356.858 265.172 357.794 265.248 358.802C265.285 359.302 265.224 359.803 265.068 360.279C264.911 360.754 264.663 361.194 264.337 361.574L258.459 368.412C257.968 368.984 257.318 369.397 256.592 369.599C255.866 369.802 255.096 369.784 254.38 369.549C253.664 369.314 253.033 368.872 252.569 368.279C252.104 367.685 251.825 366.968 251.768 366.216Z" fill="#7059A4"/>
<path d="M106.302 110.044C106.222 108.986 106.545 107.941 107.201 107.14C107.857 106.338 108.792 105.844 109.8 105.768L116.16 105.287C117.168 105.211 118.166 105.558 118.936 106.252C119.705 106.947 120.182 107.931 120.262 108.989C120.342 110.046 120.018 111.091 119.362 111.893C118.706 112.695 117.771 113.188 116.764 113.265L110.403 113.745C109.395 113.822 108.397 113.474 107.628 112.78C106.859 112.086 106.382 111.102 106.302 110.044Z" fill="#4C2F8D"/>
<path d="M125.296 336.679C125.228 335.788 125.467 334.901 125.973 334.17C126.478 333.439 127.219 332.909 128.068 332.671C128.917 332.433 129.822 332.501 130.628 332.864C131.435 333.227 132.092 333.862 132.488 334.662C135.353 340.066 137.057 346.022 137.491 352.138C137.924 358.253 137.076 364.389 135.003 370.143C134.596 371.079 133.839 371.812 132.898 372.18C131.957 372.549 130.91 372.523 129.986 372.109C129.062 371.694 128.338 370.925 127.972 369.971C127.606 369.016 127.63 367.954 128.037 367.019C129.658 362.307 130.287 357.302 129.883 352.325C129.479 347.348 128.052 342.51 125.692 338.123C125.469 337.672 125.334 337.182 125.296 336.679Z" fill="#EA4A4A"/>
<path d="M165.768 259.762L165.288 253.405C165.211 252.397 165.558 251.398 166.252 250.628C166.947 249.859 167.931 249.382 168.989 249.302C170.047 249.222 171.091 249.545 171.893 250.202C172.695 250.858 173.189 251.793 173.265 252.802L173.745 259.158C173.822 260.167 173.474 261.165 172.78 261.935C172.086 262.704 171.102 263.182 170.044 263.262C168.986 263.342 167.942 263.018 167.14 262.361C166.338 261.705 165.844 260.77 165.768 259.762Z" fill="#EA4A4A"/>
</svg>
