<svg width="24" height="24" viewBox="0 0 24 24" fill="none" xmlns="http://www.w3.org/2000/svg">
<g clip-path="url(#clip0_1381_3)">
<path d="M23.5079 12.2245C23.5079 11.2413 23.4295 10.5238 23.2598 9.77966H12.2295V14.2176H18.7041C18.5736 15.3205 17.8687 16.9815 16.3022 18.0976L16.2803 18.2462L19.7678 20.9964L20.0095 21.0209C22.2286 18.9347 23.5079 15.8653 23.5079 12.2245Z" fill="#4285F4"/>
<path d="M12.2295 23.9176C15.4015 23.9176 18.0644 22.8545 20.0095 21.0209L16.3022 18.0976C15.3102 18.8018 13.9787 19.2934 12.2295 19.2934C9.12276 19.2934 6.48593 17.2074 5.54598 14.324L5.4082 14.3359L1.78175 17.1927L1.73433 17.3269C3.66625 21.2334 7.63458 23.9176 12.2295 23.9176Z" fill="#34A853"/>
<path d="M5.5461 14.3239C5.29809 13.5798 5.15456 12.7825 5.15456 11.9587C5.15456 11.1349 5.29809 10.3376 5.53306 9.59354L5.52649 9.43507L1.8546 6.53235L1.73446 6.59052C0.938221 8.21162 0.481339 10.032 0.481339 11.9587C0.481339 13.8854 0.938221 15.7058 1.73446 17.3269L5.5461 14.3239Z" fill="#FBBC05"/>
<path d="M12.2295 4.62403C14.4355 4.62403 15.9236 5.59401 16.7721 6.40461L20.0878 3.10928C18.0514 1.1826 15.4015 0 12.2295 0C7.63457 0 3.66625 2.68406 1.73433 6.59056L5.53293 9.59359C6.48593 6.7102 9.12275 4.62403 12.2295 4.62403Z" fill="#EB4335"/>
</g>
<defs>
<clipPath id="clip0_1381_3">
<rect width="23.04" height="24" fill="white" transform="translate(0.480011)"/>
</clipPath>
</defs>
</svg>
