<svg width="105" height="40" viewBox="0 0 105 40" fill="none" xmlns="http://www.w3.org/2000/svg">
<g clip-path="url(#clip0_108_133)">
<path d="M19.3333 6.66663L5 22.6666H15L12.6667 33.3333L27 17.3333H17L19.3333 6.66663Z" stroke="white" stroke-width="2" stroke-miterlimit="4.80973" stroke-linecap="round"/>
</g>
<path d="M40.6 9.98H36.4V8H47.12V9.98H42.92V22H40.6V9.98ZM47.1242 12.04H49.2242V13.74L50.8842 12.04H53.6442V13.98H51.3842L49.3842 16.02V22H47.1242V12.04ZM55.0516 9.9V8.74L55.8716 7.94H57.0916L57.9116 8.74V9.9L57.0916 10.7H55.8716L55.0516 9.9ZM55.3516 12.04H57.6116V22H55.3516V12.04ZM60.4055 12.04H62.5055V13.6L64.0855 12.04H67.9055L69.9055 14.04V20L67.9055 22H64.0655L62.6655 20.82V26.24H60.4055V12.04ZM66.8455 20.06L67.6455 19.28V14.76L66.8455 13.98H64.4455L62.6655 15.76V18.54L64.3455 20.06H66.8455ZM73.8031 9.98H69.6031V8H80.3231V9.98H76.1231V22H73.8031V9.98ZM80.0297 20V14.04L82.0097 12.04H87.5297L89.5297 14.04V20L87.5297 22H82.0097L80.0297 20ZM86.4697 20.1L87.2697 19.3V14.74L86.4697 13.94H83.0897L82.2897 14.74V19.3L83.0897 20.1H86.4697ZM91.9289 7.72H94.1889V15.86H96.1289L98.7889 12.04H101.289L97.9489 16.84L101.489 22H98.9889L96.0889 17.78H94.1889V22H91.9289V7.72Z" fill="white"/>
<path d="M36.48 37V31.4H38.408C38.7093 31.4 38.9813 31.4747 39.224 31.624C39.4693 31.7733 39.664 31.9747 39.808 32.228C39.9547 32.4813 40.028 32.7613 40.028 33.068C40.028 33.38 39.9533 33.6627 39.804 33.916C39.6573 34.1667 39.4613 34.3667 39.216 34.516C38.9707 34.6653 38.7013 34.74 38.408 34.74H37.312V37H36.48ZM37.312 33.908H38.324C38.484 33.908 38.6293 33.868 38.76 33.788C38.8933 33.708 38.9987 33.6013 39.076 33.468C39.156 33.3347 39.196 33.184 39.196 33.016C39.196 32.848 39.156 32.6973 39.076 32.564C38.9987 32.428 38.8933 32.3213 38.76 32.244C38.6293 32.164 38.484 32.124 38.324 32.124H37.312V33.908ZM42.2478 37.104C41.8798 37.104 41.5438 37.0093 41.2398 36.82C40.9385 36.6307 40.6971 36.3773 40.5158 36.06C40.3371 35.74 40.2478 35.3867 40.2478 35C40.2478 34.7067 40.2998 34.4333 40.4038 34.18C40.5078 33.924 40.6505 33.7 40.8318 33.508C41.0158 33.3133 41.2291 33.1613 41.4718 33.052C41.7145 32.9427 41.9731 32.888 42.2478 32.888C42.6158 32.888 42.9505 32.9827 43.2518 33.172C43.5558 33.3613 43.7971 33.616 43.9758 33.936C44.1571 34.256 44.2478 34.6107 44.2478 35C44.2478 35.2907 44.1958 35.5627 44.0918 35.816C43.9878 36.0693 43.8438 36.2933 43.6598 36.488C43.4785 36.68 43.2665 36.8307 43.0238 36.94C42.7838 37.0493 42.5251 37.104 42.2478 37.104ZM42.2478 36.272C42.4691 36.272 42.6678 36.2133 42.8438 36.096C43.0198 35.9787 43.1585 35.824 43.2598 35.632C43.3638 35.4373 43.4158 35.2267 43.4158 35C43.4158 34.768 43.3625 34.5547 43.2558 34.36C43.1518 34.1653 43.0118 34.0107 42.8358 33.896C42.6598 33.7787 42.4638 33.72 42.2478 33.72C42.0291 33.72 41.8305 33.7787 41.6518 33.896C41.4758 34.0133 41.3358 34.1693 41.2318 34.364C41.1305 34.5587 41.0798 34.7707 41.0798 35C41.0798 35.2373 41.1331 35.452 41.2398 35.644C41.3465 35.836 41.4878 35.9893 41.6638 36.104C41.8425 36.216 42.0371 36.272 42.2478 36.272ZM46.6346 37H45.8066L44.4666 33H45.2826L46.2266 35.808L47.1626 33H48.0026L48.9386 35.808L49.8786 33H50.6946L49.3586 37H48.5226L47.5786 34.172L46.6346 37ZM52.9197 37.104C52.5517 37.104 52.2157 37.0093 51.9117 36.82C51.6104 36.6307 51.369 36.3773 51.1877 36.06C51.009 35.74 50.9197 35.3867 50.9197 35C50.9197 34.7067 50.9717 34.4333 51.0757 34.18C51.1797 33.924 51.3224 33.7 51.5037 33.508C51.6877 33.3133 51.901 33.1613 52.1437 33.052C52.3864 32.9427 52.645 32.888 52.9197 32.888C53.2264 32.888 53.5077 32.952 53.7637 33.08C54.0197 33.2053 54.2384 33.38 54.4197 33.604C54.601 33.8253 54.7344 34.0813 54.8197 34.372C54.905 34.66 54.9304 34.9667 54.8957 35.292H51.8117C51.8464 35.476 51.913 35.6427 52.0117 35.792C52.113 35.9387 52.241 36.0547 52.3957 36.14C52.553 36.2253 52.7277 36.2693 52.9197 36.272C53.1224 36.272 53.3064 36.2213 53.4717 36.12C53.6397 36.0187 53.777 35.8787 53.8837 35.7L54.7277 35.896C54.5677 36.2507 54.3264 36.5413 54.0037 36.768C53.681 36.992 53.3197 37.104 52.9197 37.104ZM51.7837 34.656H54.0557C54.029 34.464 53.961 34.2907 53.8517 34.136C53.745 33.9787 53.6104 33.8547 53.4477 33.764C53.2877 33.6707 53.1117 33.624 52.9197 33.624C52.7304 33.624 52.5544 33.6693 52.3917 33.76C52.2317 33.8507 52.0984 33.9747 51.9917 34.132C51.8877 34.2867 51.8184 34.4613 51.7837 34.656ZM55.5581 37V33H56.3901V33.424C56.5288 33.2587 56.6995 33.128 56.9021 33.032C57.1048 32.936 57.3235 32.888 57.5581 32.888C57.7075 32.888 57.8555 32.908 58.0021 32.948L57.6701 33.788C57.5661 33.748 57.4621 33.728 57.3581 33.728C57.1821 33.728 57.0208 33.772 56.8741 33.86C56.7275 33.9453 56.6101 34.0613 56.5221 34.208C56.4341 34.3547 56.3901 34.5173 56.3901 34.696V37H55.5581ZM60.0369 37.104C59.6689 37.104 59.3329 37.0093 59.0289 36.82C58.7275 36.6307 58.4862 36.3773 58.3049 36.06C58.1262 35.74 58.0369 35.3867 58.0369 35C58.0369 34.7067 58.0889 34.4333 58.1929 34.18C58.2969 33.924 58.4395 33.7 58.6209 33.508C58.8049 33.3133 59.0182 33.1613 59.2609 33.052C59.5035 32.9427 59.7622 32.888 60.0369 32.888C60.3435 32.888 60.6249 32.952 60.8809 33.08C61.1369 33.2053 61.3555 33.38 61.5369 33.604C61.7182 33.8253 61.8515 34.0813 61.9369 34.372C62.0222 34.66 62.0475 34.9667 62.0129 35.292H58.9289C58.9635 35.476 59.0302 35.6427 59.1289 35.792C59.2302 35.9387 59.3582 36.0547 59.5129 36.14C59.6702 36.2253 59.8449 36.2693 60.0369 36.272C60.2395 36.272 60.4235 36.2213 60.5889 36.12C60.7569 36.0187 60.8942 35.8787 61.0009 35.7L61.8449 35.896C61.6849 36.2507 61.4435 36.5413 61.1209 36.768C60.7982 36.992 60.4369 37.104 60.0369 37.104ZM58.9009 34.656H61.1729C61.1462 34.464 61.0782 34.2907 60.9689 34.136C60.8622 33.9787 60.7275 33.8547 60.5649 33.764C60.4049 33.6707 60.2289 33.624 60.0369 33.624C59.8475 33.624 59.6715 33.6693 59.5089 33.76C59.3489 33.8507 59.2155 33.9747 59.1089 34.132C59.0049 34.2867 58.9355 34.4613 58.9009 34.656ZM65.7835 31H66.6155V37H65.7835V36.412C65.6528 36.62 65.4822 36.788 65.2715 36.916C65.0608 37.0413 64.8142 37.104 64.5315 37.104C64.2408 37.104 63.9688 37.0493 63.7155 36.94C63.4622 36.8307 63.2382 36.68 63.0435 36.488C62.8515 36.2933 62.7008 36.0693 62.5915 35.816C62.4822 35.5627 62.4275 35.2907 62.4275 35C62.4275 34.7093 62.4822 34.4373 62.5915 34.184C62.7008 33.928 62.8515 33.704 63.0435 33.512C63.2382 33.3173 63.4622 33.1653 63.7155 33.056C63.9688 32.9467 64.2408 32.892 64.5315 32.892C64.8142 32.892 65.0608 32.956 65.2715 33.084C65.4822 33.2093 65.6528 33.3747 65.7835 33.58V31ZM64.5395 36.3C64.7742 36.3 64.9795 36.2427 65.1555 36.128C65.3315 36.0107 65.4675 35.8533 65.5635 35.656C65.6622 35.4587 65.7115 35.24 65.7115 35C65.7115 34.7573 65.6622 34.5373 65.5635 34.34C65.4648 34.1427 65.3275 33.9867 65.1515 33.872C64.9782 33.7547 64.7742 33.696 64.5395 33.696C64.3075 33.696 64.0955 33.7547 63.9035 33.872C63.7142 33.9893 63.5622 34.1467 63.4475 34.344C63.3355 34.5413 63.2795 34.76 63.2795 35C63.2795 35.2427 63.3368 35.4627 63.4515 35.66C63.5688 35.8547 63.7222 36.0107 63.9115 36.128C64.1035 36.2427 64.3128 36.3 64.5395 36.3ZM71.5756 32.888C71.965 32.888 72.3183 32.9827 72.6356 33.172C72.9556 33.3613 73.2103 33.616 73.3996 33.936C73.589 34.2533 73.6836 34.6067 73.6836 34.996C73.6836 35.2867 73.629 35.56 73.5196 35.816C73.4103 36.0693 73.2583 36.2933 73.0636 36.488C72.8716 36.68 72.6476 36.8307 72.3916 36.94C72.1383 37.0493 71.8663 37.104 71.5756 37.104C71.2956 37.104 71.0503 37.04 70.8396 36.912C70.6316 36.7813 70.461 36.6147 70.3276 36.412V37H69.4956V31H70.3276V33.58C70.461 33.3747 70.6316 33.208 70.8396 33.08C71.0503 32.952 71.2956 32.888 71.5756 32.888ZM71.5676 36.296C71.7996 36.296 72.0116 36.2373 72.2036 36.12C72.3956 36.0027 72.5476 35.8453 72.6596 35.648C72.7743 35.4507 72.8316 35.2333 72.8316 34.996C72.8316 34.7533 72.7743 34.5333 72.6596 34.336C72.545 34.1387 72.3916 33.9827 72.1996 33.868C72.0076 33.7507 71.797 33.692 71.5676 33.692C71.3356 33.692 71.1316 33.7507 70.9556 33.868C70.7796 33.9853 70.6423 34.1427 70.5436 34.34C70.445 34.5373 70.3956 34.756 70.3956 34.996C70.3956 35.236 70.445 35.4547 70.5436 35.652C70.6423 35.8493 70.7796 36.0067 70.9556 36.124C71.1316 36.2387 71.3356 36.296 71.5676 36.296ZM76.8294 33H77.7174L75.5254 39H74.6414L75.3654 37L73.9294 33H74.8374L75.7814 35.86L76.8294 33ZM80.4409 37V31.4H81.2729V36.168H83.6849V37H80.4409ZM84.5659 33H85.3979V37H84.5659V33ZM84.9899 32.42C84.8619 32.42 84.7553 32.3787 84.6699 32.296C84.5846 32.2133 84.5419 32.1093 84.5419 31.984C84.5419 31.8613 84.5846 31.7587 84.6699 31.676C84.7553 31.5907 84.8606 31.548 84.9859 31.548C85.1086 31.548 85.2126 31.5907 85.2979 31.676C85.3833 31.7587 85.4259 31.8613 85.4259 31.984C85.4259 32.1093 85.3833 32.2133 85.2979 32.296C85.2153 32.3787 85.1126 32.42 84.9899 32.42ZM88.467 33.832H87.627L87.623 37H86.791L86.795 33.832H86.159V33H86.795L86.791 31.744H87.623L87.627 33H88.467V33.832ZM90.8494 37.104C90.4814 37.104 90.1454 37.0093 89.8414 36.82C89.54 36.6307 89.2987 36.3773 89.1174 36.06C88.9387 35.74 88.8494 35.3867 88.8494 35C88.8494 34.7067 88.9014 34.4333 89.0054 34.18C89.1094 33.924 89.252 33.7 89.4334 33.508C89.6174 33.3133 89.8307 33.1613 90.0734 33.052C90.316 32.9427 90.5747 32.888 90.8494 32.888C91.156 32.888 91.4374 32.952 91.6934 33.08C91.9494 33.2053 92.168 33.38 92.3494 33.604C92.5307 33.8253 92.664 34.0813 92.7494 34.372C92.8347 34.66 92.86 34.9667 92.8254 35.292H89.7414C89.776 35.476 89.8427 35.6427 89.9414 35.792C90.0427 35.9387 90.1707 36.0547 90.3254 36.14C90.4827 36.2253 90.6574 36.2693 90.8494 36.272C91.052 36.272 91.236 36.2213 91.4014 36.12C91.5694 36.0187 91.7067 35.8787 91.8134 35.7L92.6574 35.896C92.4974 36.2507 92.256 36.5413 91.9334 36.768C91.6107 36.992 91.2494 37.104 90.8494 37.104ZM89.7134 34.656H91.9854C91.9587 34.464 91.8907 34.2907 91.7814 34.136C91.6747 33.9787 91.54 33.8547 91.3774 33.764C91.2174 33.6707 91.0414 33.624 90.8494 33.624C90.66 33.624 90.484 33.6693 90.3214 33.76C90.1614 33.8507 90.028 33.9747 89.9214 34.132C89.8174 34.2867 89.748 34.4613 89.7134 34.656ZM95.0357 31.4H96.0077L98.0437 37H97.1637L96.7757 35.936H94.2677L93.8837 37H92.9997L95.0357 31.4ZM94.5757 35.104H96.4677L95.5197 32.504L94.5757 35.104ZM98.7456 37V31.4H100.674C100.975 31.4 101.247 31.4747 101.49 31.624C101.735 31.7733 101.93 31.9747 102.074 32.228C102.22 32.4813 102.294 32.7613 102.294 33.068C102.294 33.38 102.219 33.6627 102.07 33.916C101.923 34.1667 101.727 34.3667 101.482 34.516C101.236 34.6653 100.967 34.74 100.674 34.74H99.5776V37H98.7456ZM99.5776 33.908H100.59C100.75 33.908 100.895 33.868 101.026 33.788C101.159 33.708 101.264 33.6013 101.342 33.468C101.422 33.3347 101.462 33.184 101.462 33.016C101.462 32.848 101.422 32.6973 101.342 32.564C101.264 32.428 101.159 32.3213 101.026 32.244C100.895 32.164 100.75 32.124 100.59 32.124H99.5776V33.908ZM103.178 37V31.4H104.01V37H103.178Z" fill="white"/>
<defs>
<clipPath id="clip0_108_133">
<rect width="32" height="32" fill="white" transform="translate(0 4)"/>
</clipPath>
</defs>
</svg>
