<svg width="32" height="32" viewBox="0 0 32 32" fill="none" xmlns="http://www.w3.org/2000/svg">
<rect width="32" height="32" rx="12" fill="url(#paint0_linear_1480_11451)"/>
<path d="M7.46791 16.9056C7.87601 12.1602 10.1564 9.99945 16.0902 9.26386C20.5169 8.71511 23.0085 6.94026 24.0808 5.95774C24.3036 5.75351 24.7249 5.91569 24.7201 6.21796C24.6409 11.2676 23.1468 13.0758 19.7711 13.8292C19.6319 13.853 19.4937 13.876 19.3562 13.8984C18.8914 13.974 18.5464 14.373 18.5464 14.844V20.7441C18.5464 23.7259 16.9319 26.5934 14.2302 27.193C14.042 27.2347 13.8705 27.0859 13.8705 26.893V15.8782C13.8705 15.281 13.3256 14.8288 12.7457 14.9717C11.0675 15.3855 9.50304 16.0178 7.99192 17.1765C7.77109 17.3458 7.44407 17.1828 7.46791 16.9056Z" fill="white"/>
<defs>
<linearGradient id="paint0_linear_1480_11451" x1="32" y1="32" x2="-6.07713" y2="20.9599" gradientUnits="userSpaceOnUse">
<stop stop-color="#246BFD"/>
<stop offset="1" stop-color="#6F9EFF"/>
</linearGradient>
</defs>
</svg>
