<svg width="32" height="20" viewBox="0 0 32 20" fill="none" xmlns="http://www.w3.org/2000/svg">
<path fill-rule="evenodd" clip-rule="evenodd" d="M22.112 0C20.0854 0 18.204 0.614922 16.6387 1.66946L16.6831 1.70725C16.7477 1.76198 16.8098 1.81462 16.8587 1.87174C19.2 3.91743 20.54 6.88281 20.54 10.0006C20.54 13.1156 19.2054 16.0783 16.876 18.1335C16.7987 18.1995 16.716 18.2656 16.6347 18.3303C18.204 19.3862 20.0854 19.9998 22.1107 19.9998C27.5734 20.0012 32 15.5241 32 10.0006C32 4.47976 27.5734 0 22.112 0ZM15.124 18.1336C15.2013 18.1997 15.284 18.2658 15.3653 18.3305C13.796 19.3864 11.912 20 9.88932 20C4.42666 20.0013 0 15.5243 0 10.0008C0 4.4786 4.42666 0.000183105 9.88798 0.000183105C11.912 0.000183105 13.796 0.615105 15.3613 1.66964L15.3169 1.70744C15.2523 1.76216 15.1902 1.81481 15.1413 1.87192C12.8 3.91762 11.46 6.883 11.46 10.0008C11.46 13.1172 12.7946 16.0826 15.124 18.1336ZM15.6268 2.45579C15.7481 2.34656 15.8721 2.24543 16.0001 2.14429C16.1281 2.24543 16.2534 2.34791 16.3734 2.45579C18.4588 4.28842 19.7748 6.9868 19.7748 10.0007C19.7748 13.016 18.4574 15.713 16.3734 17.5457C16.2521 17.6535 16.1281 17.7587 16.0001 17.8585C15.8734 17.7587 15.7468 17.6535 15.6268 17.5457C13.5414 15.713 12.2254 13.016 12.2254 10.0007C12.2254 6.9868 13.5414 4.28842 15.6268 2.45579Z" fill="white"/>
</svg>
