<svg width="32" height="33" viewBox="0 0 32 33" fill="none" xmlns="http://www.w3.org/2000/svg">
<path fill-rule="evenodd" clip-rule="evenodd" d="M22.5859 4.33337C24.3739 4.33337 26.0939 5.04004 27.3592 6.30804C28.6259 7.57337 29.3339 9.28004 29.3339 11.0667V21.6C29.3339 25.32 26.3072 28.3334 22.5859 28.3334H9.4139C5.69257 28.3334 2.66724 25.32 2.66724 21.6V11.0667C2.66724 7.34671 5.67924 4.33337 9.4139 4.33337H22.5859ZM24.7072 13.0534L24.8139 12.9467C25.1326 12.56 25.1326 12 24.7992 11.6134C24.6139 11.4147 24.3592 11.2934 24.0939 11.2667C23.8139 11.252 23.5472 11.3467 23.3459 11.5334L17.3339 16.3334C16.5606 16.9747 15.4526 16.9747 14.6672 16.3334L8.66724 11.5334C8.25257 11.2267 7.67924 11.2667 7.3339 11.6267C6.9739 11.9867 6.9339 12.56 7.23924 12.96L7.4139 13.1334L13.4806 17.8667C14.2272 18.4534 15.1326 18.7734 16.0806 18.7734C17.0259 18.7734 17.9472 18.4534 18.6926 17.8667L24.7072 13.0534Z" fill="url(#paint0_linear_627_20235)"/>
<defs>
<linearGradient id="paint0_linear_627_20235" x1="29.3339" y1="28.3334" x2="-1.83016" y2="18.2937" gradientUnits="userSpaceOnUse">
<stop stop-color="#246BFD"/>
<stop offset="1" stop-color="#6F9EFF"/>
</linearGradient>
</defs>
</svg>
