<svg width="16" height="17" viewBox="0 0 16 17" fill="none" xmlns="http://www.w3.org/2000/svg">
<path d="M13.5438 10.0375C12.5622 10.3128 11.5249 10.3218 10.5386 10.0637C9.55229 9.80552 8.65248 9.28949 7.93156 8.56857C7.21064 7.84765 6.6946 6.94783 6.43644 5.96152C6.17828 4.97522 6.1873 3.93797 6.46258 2.9563C5.49474 3.22568 4.61437 3.74394 3.90917 4.45944C3.20396 5.17495 2.69852 6.06274 2.44319 7.03438C2.18787 8.00602 2.19157 9.02759 2.45393 9.99735C2.71629 10.9671 3.22815 11.8512 3.93853 12.5616C4.64891 13.272 5.53301 13.7838 6.50277 14.0462C7.47253 14.3086 8.49411 14.3123 9.46575 14.0569C10.4374 13.8016 11.3252 13.2962 12.0407 12.591C12.7562 11.8857 13.2744 11.0054 13.5438 10.0375V10.0375Z" stroke="#4C2F8D" stroke-width="1.5" stroke-linecap="round" stroke-linejoin="round"/>
</svg>
