<svg width="28" height="28" viewBox="0 0 28 28" fill="none" xmlns="http://www.w3.org/2000/svg">
<path fill-rule="evenodd" clip-rule="evenodd" d="M21.825 10.2623C21.825 11.7276 22.2122 12.5912 23.0645 13.5864C23.7103 14.3197 23.9167 15.2608 23.9167 16.2819C23.9167 17.3019 23.5816 18.2701 22.9103 19.0562C22.0314 19.9985 20.7918 20.6002 19.5268 20.7047C17.6936 20.861 15.8593 20.9926 14.0006 20.9926C12.1408 20.9926 10.3076 20.9139 8.47442 20.7047C7.20824 20.6002 5.96873 19.9985 5.09098 19.0562C4.41963 18.2701 4.08337 17.3019 4.08337 16.2819C4.08337 15.2608 4.29093 14.3197 4.93561 13.5864C5.81452 12.5912 6.17628 11.7276 6.17628 10.2623V9.76527C6.17628 7.80298 6.66559 6.51986 7.6732 5.26376C9.17128 3.4319 11.5726 2.33325 13.9484 2.33325H14.0528C16.4796 2.33325 18.9587 3.48477 20.4312 5.39536C21.3867 6.62561 21.825 7.85468 21.825 9.76527V10.2623ZM10.586 23.4042C10.586 22.8167 11.1252 22.5476 11.6238 22.4325C12.207 22.3091 15.7609 22.3091 16.3441 22.4325C16.8427 22.5476 17.3819 22.8167 17.3819 23.4042C17.3529 23.9635 17.0247 24.4594 16.5714 24.7743C15.9835 25.2326 15.2936 25.5228 14.5724 25.6274C14.1735 25.6791 13.7816 25.6802 13.3966 25.6274C12.6743 25.5228 11.9844 25.2326 11.3976 24.7731C10.9431 24.4594 10.615 23.9635 10.586 23.4042Z" fill="#246BFD"/>
</svg>
