<svg width="25" height="24" viewBox="0 0 25 24" fill="none" xmlns="http://www.w3.org/2000/svg">
<path d="M18.265 21.62C17.385 21.88 16.345 22 15.125 22H9.125C7.905 22 6.865 21.88 5.985 21.62C6.205 19.02 8.875 16.97 12.125 16.97C15.375 16.97 18.045 19.02 18.265 21.62Z" stroke="#BBACE8" stroke-width="1.5" stroke-linecap="round" stroke-linejoin="round"/>
<path d="M15.125 2H9.125C4.125 2 2.125 4 2.125 9V15C2.125 18.78 3.265 20.85 5.985 21.62C6.205 19.02 8.875 16.97 12.125 16.97C15.375 16.97 18.045 19.02 18.265 21.62C20.985 20.85 22.125 18.78 22.125 15V9C22.125 4 20.125 2 15.125 2ZM12.125 14.17C10.145 14.17 8.545 12.56 8.545 10.58C8.545 8.60002 10.145 7 12.125 7C14.105 7 15.705 8.60002 15.705 10.58C15.705 12.56 14.105 14.17 12.125 14.17Z" stroke="#BBACE8" stroke-width="1.5" stroke-linecap="round" stroke-linejoin="round"/>
<path d="M15.705 10.58C15.705 12.56 14.105 14.17 12.125 14.17C10.145 14.17 8.545 12.56 8.545 10.58C8.545 8.60002 10.145 7 12.125 7C14.105 7 15.705 8.60002 15.705 10.58Z" stroke="#BBACE8" stroke-width="1.5" stroke-linecap="round" stroke-linejoin="round"/>
</svg>
