<svg width="25" height="24" viewBox="0 0 25 24" fill="none" xmlns="http://www.w3.org/2000/svg">
<path d="M18.39 21.62C17.51 21.88 16.47 22 15.25 22H9.25C8.03 22 6.99 21.88 6.11 21.62C6.33 19.02 9 16.97 12.25 16.97C15.5 16.97 18.17 19.02 18.39 21.62Z" stroke="#4C2F8D" stroke-width="1.5" stroke-linecap="round" stroke-linejoin="round"/>
<path d="M15.25 2H9.25C4.25 2 2.25 4 2.25 9V15C2.25 18.78 3.39 20.85 6.11 21.62C6.33 19.02 9 16.97 12.25 16.97C15.5 16.97 18.17 19.02 18.39 21.62C21.11 20.85 22.25 18.78 22.25 15V9C22.25 4 20.25 2 15.25 2ZM12.25 14.17C10.27 14.17 8.67 12.56 8.67 10.58C8.67 8.60002 10.27 7 12.25 7C14.23 7 15.83 8.60002 15.83 10.58C15.83 12.56 14.23 14.17 12.25 14.17Z" stroke="#4C2F8D" stroke-width="1.5" stroke-linecap="round" stroke-linejoin="round"/>
<path d="M15.83 10.58C15.83 12.56 14.23 14.17 12.25 14.17C10.27 14.17 8.67 12.56 8.67 10.58C8.67 8.60002 10.27 7 12.25 7C14.23 7 15.83 8.60002 15.83 10.58Z" stroke="#4C2F8D" stroke-width="1.5" stroke-linecap="round" stroke-linejoin="round"/>
</svg>
