<svg width="32" height="12" viewBox="0 0 32 12" fill="none" xmlns="http://www.w3.org/2000/svg">
<path d="M2.34195 11.3028L0 0.682068H1.94412L3.81318 9.14069L8.0317 0.682068H9.96831L4.68391 11.3028H2.34195Z" fill="black"/>
<path d="M10.0715 11.3028L11.5427 0.682068H13.3743L11.903 11.3028H10.0715Z" fill="black"/>
<path d="M17.6898 11.5C17.1093 11.5 16.5639 11.409 16.0534 11.2269C15.548 11.0398 15.1201 10.7743 14.7699 10.4303C14.4196 10.0814 14.1894 9.66414 14.0793 9.17862L15.8883 8.54138C15.9333 8.74368 16.0509 8.92828 16.2411 9.09517C16.4312 9.26207 16.6739 9.39609 16.9692 9.49724C17.2644 9.59839 17.5897 9.64896 17.945 9.64896C18.3103 9.64896 18.6581 9.59333 18.9884 9.48207C19.3237 9.36575 19.6039 9.20644 19.8291 9.00414C20.0543 8.79678 20.1869 8.55655 20.2269 8.28345C20.2669 8.00529 20.1944 7.7777 20.0092 7.60069C19.8291 7.41862 19.5864 7.27448 19.2811 7.16828C18.9809 7.06207 18.6631 6.98115 18.3278 6.92552C17.5972 6.80919 16.9542 6.62966 16.3987 6.3869C15.8432 6.14414 15.4229 5.80782 15.1377 5.37793C14.8574 4.94805 14.7623 4.39172 14.8524 3.70897C14.9425 3.06667 15.2027 2.50529 15.6331 2.02483C16.0684 1.54437 16.6014 1.17011 17.2319 0.902069C17.8674 0.634023 18.5305 0.5 19.2211 0.5C19.7965 0.5 20.337 0.591035 20.8424 0.773104C21.3528 0.955172 21.7857 1.22069 22.141 1.56965C22.4963 1.91862 22.729 2.33839 22.8391 2.82896L21.0226 3.45862C20.9775 3.25632 20.8599 3.07172 20.6698 2.90483C20.4796 2.73793 20.2369 2.60644 19.9417 2.51034C19.6464 2.4092 19.3211 2.35862 18.9659 2.35862C18.6106 2.35356 18.2653 2.41172 17.93 2.5331C17.5947 2.64943 17.312 2.80874 17.0818 3.01103C16.8566 3.21333 16.724 3.44598 16.684 3.70897C16.6389 4.04782 16.699 4.30322 16.8641 4.47517C17.0292 4.64713 17.2619 4.77356 17.5622 4.85448C17.8674 4.93035 18.2077 5.00115 18.583 5.0669C19.2736 5.17816 19.8966 5.36529 20.4521 5.62828C21.0126 5.89126 21.4429 6.24276 21.7432 6.68276C22.0434 7.1177 22.1485 7.65126 22.0584 8.28345C21.9684 8.92575 21.7081 9.48965 21.2778 9.97517C20.8524 10.4556 20.322 10.8299 19.6865 11.0979C19.0559 11.366 18.3904 11.5 17.6898 11.5Z" fill="black"/>
<path d="M27.5413 0.682068H29.6505L32 11.3028H30.0559L29.6355 9.42138H25.1393L24.201 11.3028H22.2569L27.5413 0.682068ZM26.0701 7.57034H29.2227L28.2469 3.1931L26.0701 7.57034Z" fill="black"/>
</svg>
